<?xml version="1.0" encoding="UTF-8" standalone="no"?>
<!-- Generator: Adobe Illustrator 19.0.0, SVG Export Plug-In . SVG Version: 6.00 Build 0)  -->

<svg
   xmlns:dc="http://purl.org/dc/elements/1.1/"
   xmlns:cc="http://creativecommons.org/ns#"
   xmlns:rdf="http://www.w3.org/1999/02/22-rdf-syntax-ns#"
   xmlns:svg="http://www.w3.org/2000/svg"
   xmlns="http://www.w3.org/2000/svg"
   xmlns:sodipodi="http://sodipodi.sourceforge.net/DTD/sodipodi-0.dtd"
   xmlns:inkscape="http://www.inkscape.org/namespaces/inkscape"
   version="1.1"
   id="Capa_1"
   x="0px"
   y="0px"
   viewBox="0 0 240.823 240.823"
   style="enable-background:new 0 0 240.823 240.823;"
   xml:space="preserve"
   sodipodi:docname="left-arrow.svg"
   inkscape:version="0.92.4 (5da689c313, 2019-01-14)"><metadata
   id="metadata5916"><rdf:RDF><cc:Work
       rdf:about=""><dc:format>image/svg+xml</dc:format><dc:type
         rdf:resource="http://purl.org/dc/dcmitype/StillImage" /></cc:Work></rdf:RDF></metadata><defs
   id="defs5914" /><sodipodi:namedview
   pagecolor="#ffffff"
   bordercolor="#666666"
   borderopacity="1"
   objecttolerance="10"
   gridtolerance="10"
   guidetolerance="10"
   inkscape:pageopacity="0"
   inkscape:pageshadow="2"
   inkscape:window-width="1920"
   inkscape:window-height="1001"
   id="namedview5912"
   showgrid="false"
   inkscape:zoom="0.97997285"
   inkscape:cx="120.4115"
   inkscape:cy="120.4115"
   inkscape:window-x="-9"
   inkscape:window-y="-9"
   inkscape:window-maximized="1"
   inkscape:current-layer="Capa_1" />
<g
   id="g5879">
	<path
   id="Chevron_Right"
   d="M57.633,129.007L165.93,237.268c4.752,4.74,12.451,4.74,17.215,0c4.752-4.74,4.752-12.439,0-17.179   l-99.707-99.671l99.695-99.671c4.752-4.74,4.752-12.439,0-17.191c-4.752-4.74-12.463-4.74-17.215,0L57.621,111.816   C52.942,116.507,52.942,124.327,57.633,129.007z" />
	<g
   id="g5867">
	</g>
	<g
   id="g5869">
	</g>
	<g
   id="g5871">
	</g>
	<g
   id="g5873">
	</g>
	<g
   id="g5875">
	</g>
	<g
   id="g5877">
	</g>
</g>
<g
   id="g5881">
</g>
<g
   id="g5883">
</g>
<g
   id="g5885">
</g>
<g
   id="g5887">
</g>
<g
   id="g5889">
</g>
<g
   id="g5891">
</g>
<g
   id="g5893">
</g>
<g
   id="g5895">
</g>
<g
   id="g5897">
</g>
<g
   id="g5899">
</g>
<g
   id="g5901">
</g>
<g
   id="g5903">
</g>
<g
   id="g5905">
</g>
<g
   id="g5907">
</g>
<g
   id="g5909">
</g>
<path
   style="fill:#628098;fill-opacity:1;stroke-width:33.03321457;stroke-linejoin:miter;stroke-miterlimit:4.9000001;stroke-dasharray:none;paint-order:normal"
   d=""
   id="path6461"
   inkscape:connector-curvature="0" /><path
   style="fill:#06d1f4;fill-opacity:1;stroke-width:33.03321457;stroke-linejoin:miter;stroke-miterlimit:4.9000001;stroke-dasharray:none;paint-order:normal"
   d="M 170.10675,239.41537 C 168.98427,238.93682 142.73908,213.13613 111.7841,182.0805 52.52881,122.63254 52.820979,122.97225 55.312016,116.42033 56.608638,113.00995 78.587222,90.612088 132.12782,38.139132 l 38.5538,-37.78500465 4.78164,0.53896117 c 8.63577,0.97337558 13.04629,9.24064748 8.99583,16.86215848 -0.80543,1.515539 -23.99273,25.252265 -51.52731,52.74828 l -50.062889,49.992753 51.527309,51.56404 51.52732,51.56404 v 4.59665 c 0,5.22372 -1.85996,8.45885 -6.13389,10.66899 -3.24698,1.67908 -6.55567,1.8586 -9.68288,0.52537 z"
   id="path6463"
   inkscape:connector-curvature="0" /><path
   style="fill:#06d1f4;fill-opacity:1;stroke-width:33.03321457;stroke-linejoin:miter;stroke-miterlimit:4.9000001;stroke-dasharray:none;paint-order:normal"
   d=""
   id="path6465"
   inkscape:connector-curvature="0" /></svg>