<?xml version="1.0" encoding="UTF-8" standalone="no"?>
<!-- Generator: Adobe Illustrator 16.0.0, SVG Export Plug-In . SVG Version: 6.00 Build 0)  -->

<svg
   xmlns:dc="http://purl.org/dc/elements/1.1/"
   xmlns:cc="http://creativecommons.org/ns#"
   xmlns:rdf="http://www.w3.org/1999/02/22-rdf-syntax-ns#"
   xmlns:svg="http://www.w3.org/2000/svg"
   xmlns="http://www.w3.org/2000/svg"
   xmlns:sodipodi="http://sodipodi.sourceforge.net/DTD/sodipodi-0.dtd"
   xmlns:inkscape="http://www.inkscape.org/namespaces/inkscape"
   version="1.1"
   id="Capa_1"
   x="0px"
   y="0px"
   width="451.846px"
   height="451.847px"
   viewBox="0 0 451.846 451.847"
   style="enable-background:new 0 0 451.846 451.847;"
   xml:space="preserve"
   sodipodi:docname="right-arrow.svg"
   inkscape:version="0.92.4 (5da689c313, 2019-01-14)"><metadata
   id="metadata6547"><rdf:RDF><cc:Work
       rdf:about=""><dc:format>image/svg+xml</dc:format><dc:type
         rdf:resource="http://purl.org/dc/dcmitype/StillImage" /></cc:Work></rdf:RDF></metadata><defs
   id="defs6545" /><sodipodi:namedview
   pagecolor="#ffffff"
   bordercolor="#666666"
   borderopacity="1"
   objecttolerance="10"
   gridtolerance="10"
   guidetolerance="10"
   inkscape:pageopacity="0"
   inkscape:pageshadow="2"
   inkscape:window-width="725"
   inkscape:window-height="784"
   id="namedview6543"
   showgrid="false"
   inkscape:zoom="0.52230071"
   inkscape:cx="225.923"
   inkscape:cy="225.92349"
   inkscape:window-x="196"
   inkscape:window-y="60"
   inkscape:window-maximized="0"
   inkscape:current-layer="Capa_1" />
<g
   id="g6510">
	<path
   d="M345.441,248.292L151.154,442.573c-12.359,12.365-32.397,12.365-44.75,0c-12.354-12.354-12.354-32.391,0-44.744   L278.318,225.92L106.409,54.017c-12.354-12.359-12.354-32.394,0-44.748c12.354-12.359,32.391-12.359,44.75,0l194.287,194.284   c6.177,6.18,9.262,14.271,9.262,22.366C354.708,234.018,351.617,242.115,345.441,248.292z"
   id="path6508" />
</g>
<g
   id="g6512">
</g>
<g
   id="g6514">
</g>
<g
   id="g6516">
</g>
<g
   id="g6518">
</g>
<g
   id="g6520">
</g>
<g
   id="g6522">
</g>
<g
   id="g6524">
</g>
<g
   id="g6526">
</g>
<g
   id="g6528">
</g>
<g
   id="g6530">
</g>
<g
   id="g6532">
</g>
<g
   id="g6534">
</g>
<g
   id="g6536">
</g>
<g
   id="g6538">
</g>
<g
   id="g6540">
</g>
<path
   style="fill:#06d1f4;fill-opacity:1;stroke-width:61.97895813;stroke-linejoin:miter;stroke-miterlimit:4.9000001;stroke-dasharray:none;paint-order:normal"
   d="m 113.32471,446.00744 c -14.302911,-9.73447 -18.976381,-25.13524 -11.80817,-38.91215 2.26986,-4.36254 40.12096,-43.66934 90.19746,-93.66633 47.45746,-47.38211 86.28628,-87.01801 86.28628,-88.07975 0,-1.06177 -39.28727,-41.12849 -87.30504,-89.03716 -49.30096,-49.188942 -88.47228,-89.788565 -89.98648,-93.267653 -7.745136,-17.795576 3.77785,-38.1574563 23.727,-41.9271758 14.47946,-2.7361326 16.26187,-1.20170211 124.22028,106.9379088 90.19411,90.34548 102.04977,102.90526 103.94118,110.11421 4.43173,16.89134 7.34906,13.40306 -104.7138,125.20722 -56.62153,56.49085 -104.83014,103.66195 -107.13024,104.82467 -7.1546,3.61677 -20.4539,2.55305 -27.42847,-2.19379 z"
   id="path7092"
   inkscape:connector-curvature="0" /></svg>