<?xml version="1.0" encoding="utf-8"?>
<!-- Generator: Adobe Illustrator 23.0.1, SVG Export Plug-In . SVG Version: 6.00 Build 0)  -->
<svg version="1.1" id="Layer_1" xmlns="http://www.w3.org/2000/svg" xmlns:xlink="http://www.w3.org/1999/xlink" x="0px" y="0px"
	 viewBox="0 0 133 45" enable-background="new 0 0 133 45" xml:space="preserve">
<g>
	<path fill="#FFFFFF" d="M47.642,32.286V32.27c0-3.155-2.559-5.714-5.714-5.714c-1.293,0-2.484,0.429-3.442,1.152
		c-0.064,0.048-0.127,0.099-0.189,0.15c-0.032,0.026-0.064,0.052-0.095,0.079c-0.028,0.024-0.056,0.048-0.084,0.074
		c-0.005,0.004-0.01,0.008-0.014,0.013c-0.029,0.025-0.058,0.052-0.086,0.079c-0.03,0.028-0.06,0.056-0.089,0.085
		c-0.03,0.028-0.059,0.058-0.087,0.087c-0.03,0.029-0.058,0.059-0.085,0.089c-0.17,0.18-0.327,0.372-0.472,0.573
		c-0.025,0.033-0.048,0.068-0.071,0.101c-0.016,0.023-0.031,0.045-0.046,0.068c-0.018,0.026-0.036,0.054-0.053,0.081
		c-0.02,0.031-0.04,0.062-0.058,0.093c-0.031,0.049-0.06,0.099-0.089,0.149c-0.016,0.028-0.032,0.056-0.047,0.083
		c-0.119,0.214-0.223,0.437-0.313,0.666c-0.014,0.034-0.027,0.07-0.04,0.105c-0.015,0.039-0.029,0.079-0.042,0.119
		c-0.004,0.01-0.007,0.021-0.011,0.03c-0.013,0.037-0.025,0.074-0.036,0.111c0,0.001,0,0.001,0,0.001
		c-0.013,0.037-0.024,0.075-0.034,0.113c-0.011,0.034-0.021,0.07-0.03,0.105c-0.009,0.031-0.017,0.062-0.025,0.094
		c-0.009,0.035-0.018,0.071-0.026,0.106c-0.007,0.027-0.013,0.054-0.019,0.081c-0.023,0.104-0.042,0.209-0.06,0.315
		c-0.33-1.632-1.771-2.861-3.501-2.861c-1.148,0-2.17,0.542-2.823,1.383c0.133,0.209,0.258,0.423,0.373,0.643
		c1,1.481,1.584,3.267,1.584,5.188c0,3.856-2.35,7.162-5.695,8.565c-1.104,0.464-2.317,0.72-3.59,0.72
		c-0.9,0-1.769-0.128-2.592-0.367c-0.529-0.2-1.03-0.457-1.495-0.765c-0.624-0.411-1.185-0.912-1.662-1.484
		c-0.685-0.819-1.2-1.785-1.493-2.843c-0.18-0.649-0.276-1.332-0.276-2.038c0-0.526,0.053-1.039,0.155-1.535
		c0.136,0.845,0.457,1.628,0.922,2.307c0.927,1.357,2.426,2.293,4.149,2.462c-0.485,0.17-1.007,0.263-1.551,0.263
		c-0.453,0-0.892-0.064-1.306-0.184c1.047,1.188,2.58,1.937,4.288,1.937c0.337,0,0.666-0.029,0.986-0.085
		c0.995-0.173,1.902-0.604,2.649-1.221c0.573-0.473,1.052-1.055,1.405-1.716c0.251-0.469,0.439-0.977,0.551-1.513
		c0.146-0.588,0.223-1.204,0.223-1.837c0-0.71-0.097-1.397-0.278-2.048c-0.192-0.688-0.478-1.338-0.844-1.933
		c-0.341-0.7-0.853-1.303-1.481-1.754c-0.031-0.023-0.063-0.044-0.095-0.066c-0.696-0.474-1.525-0.766-2.421-0.808
		c0.023,0.004,0.045,0.009,0.067,0.013c-0.066-0.006-0.132-0.01-0.199-0.013c-0.072-0.003-0.145-0.005-0.219-0.005
		c-1.004,0-1.934,0.316-2.697,0.854c-0.012,0.007-0.023,0.016-0.034,0.024c-0.91,0.653-1.576,1.622-1.836,2.747
		c0.023-0.238,0.034-0.48,0.034-0.725c0-0.487-0.046-0.963-0.134-1.424c-0.04-0.214-0.089-0.425-0.147-0.632
		c-0.091-0.324-0.202-0.639-0.333-0.944c-0.268-0.627-0.619-1.211-1.038-1.738c-1.375-1.73-3.487-2.849-5.862-2.882
		c-4.126-0.056-7.58,3.228-7.722,7.351c-0.028,0.835,0.077,1.642,0.297,2.4c-1.471-3.13-2.293-6.626-2.293-10.314
		c0-0.335,0.007-0.668,0.021-0.999c0.007-0.186,0.017-0.371,0.028-0.556c0.002-0.036,0.005-0.073,0.007-0.109
		c0.003-0.05,0.007-0.099,0.011-0.148c0.003-0.048,0.007-0.097,0.011-0.145c0.011-0.138,0.023-0.274,0.036-0.411
		c0.018-0.184,0.038-0.368,0.06-0.551c0.015-0.125,0.03-0.249,0.047-0.373c0.002-0.016,0.004-0.032,0.007-0.047
		c0.019-0.14,0.04-0.28,0.061-0.42c0.025-0.158,0.051-0.315,0.078-0.471c0.026-0.148,0.054-0.295,0.082-0.443
		c0.034-0.174,0.07-0.346,0.107-0.518c0.012-0.058,0.025-0.117,0.038-0.175c0.066-0.293,0.138-0.586,0.215-0.875
		c0.017-0.067,0.035-0.133,0.054-0.199c0.064-0.235,0.132-0.468,0.203-0.7c0.023-0.073,0.045-0.146,0.068-0.218
		c0.044-0.138,0.088-0.274,0.134-0.411c0.024-0.072,0.048-0.143,0.074-0.215l0.062-0.175c0.056-0.156,0.112-0.31,0.171-0.464
		c0.027-0.071,0.054-0.141,0.081-0.211c0.082-0.211,0.167-0.419,0.255-0.627c0.029-0.07,0.059-0.138,0.089-0.207
		c0.12-0.276,0.244-0.549,0.374-0.819c0.032-0.068,0.065-0.134,0.098-0.202c0.033-0.067,0.066-0.134,0.1-0.201
		c0.033-0.067,0.067-0.134,0.101-0.2c0.034-0.067,0.069-0.133,0.103-0.199c0.035-0.066,0.07-0.132,0.105-0.198
		c0.035-0.066,0.071-0.131,0.107-0.197c0.036-0.066,0.072-0.131,0.109-0.195c0.07-0.126,0.142-0.251,0.215-0.375
		c0.266-0.454,0.546-0.9,0.841-1.335c0.042-0.062,0.083-0.123,0.126-0.184c0.042-0.061,0.085-0.122,0.127-0.183
		c0.042-0.06,0.085-0.121,0.129-0.182c0.173-0.241,0.35-0.48,0.532-0.714c0.046-0.058,0.091-0.117,0.137-0.176
		c0.091-0.115,0.183-0.229,0.276-0.343c0.095-0.115,0.19-0.231,0.288-0.344C6.174,8.713,6.222,8.656,6.27,8.601
		c0.048-0.056,0.097-0.112,0.146-0.168C6.458,8.387,6.499,8.34,6.54,8.293C6.56,8.271,6.58,8.249,6.6,8.226
		c0.083-0.092,0.168-0.184,0.252-0.276c0.054-0.058,0.109-0.116,0.164-0.174C7.067,7.723,7.118,7.67,7.17,7.617
		c0.051-0.054,0.103-0.107,0.155-0.16c0.052-0.052,0.104-0.105,0.156-0.158c0.105-0.105,0.211-0.209,0.317-0.311
		c0.053-0.052,0.107-0.103,0.16-0.154c0.054-0.05,0.108-0.101,0.162-0.152c0.054-0.05,0.109-0.101,0.164-0.15
		c0.055-0.05,0.11-0.099,0.165-0.149C8.56,6.285,8.672,6.187,8.784,6.09c0.225-0.193,0.452-0.384,0.684-0.568
		c0.054-0.044,0.109-0.087,0.164-0.13c0.062-0.049,0.124-0.097,0.186-0.145l0.177-0.135c0.059-0.045,0.119-0.089,0.178-0.134
		c0.06-0.044,0.119-0.088,0.179-0.132c0.052-0.038,0.104-0.076,0.156-0.113c0.189-0.136,0.381-0.269,0.574-0.399
		c0.062-0.042,0.123-0.083,0.185-0.124c0.124-0.082,0.249-0.163,0.374-0.242c0.126-0.08,0.252-0.159,0.38-0.236
		c0.064-0.039,0.127-0.078,0.191-0.115c0.064-0.038,0.129-0.076,0.193-0.114c0.052-0.03,0.103-0.06,0.155-0.089
		c0.079-0.046,0.16-0.091,0.24-0.136c0.063-0.036,0.126-0.071,0.189-0.105c0.066-0.036,0.131-0.072,0.197-0.107
		c0.066-0.035,0.132-0.07,0.198-0.105c0.05-0.026,0.101-0.053,0.151-0.079c0.083-0.043,0.166-0.085,0.248-0.126
		c0.067-0.034,0.134-0.067,0.201-0.099c0.068-0.033,0.135-0.066,0.203-0.098c0.068-0.032,0.135-0.064,0.203-0.096
		c0.064-0.029,0.127-0.059,0.191-0.088c0.073-0.033,0.146-0.066,0.219-0.098c0.068-0.03,0.136-0.06,0.205-0.09
		c0.001-0.001,0.001-0.001,0.002-0.001c0.095-0.042,0.191-0.082,0.288-0.123c0.001,0.001,0.001,0.001,0.001,0.001
		c-1.785,2.147-2.859,4.907-2.859,7.917c0,0.013,0,0.026,0.001,0.039v0.009c-0.001,0.057-0.001,0.114-0.001,0.171
		c0,4.669,2.599,8.73,6.429,10.816h0.001c1.598,0.871,3.41,1.398,5.338,1.481c-0.143-0.052-0.285-0.107-0.424-0.168
		c-0.001-0.001-0.002-0.001-0.003-0.001c-0.088-0.038-0.176-0.077-0.262-0.118c-0.087-0.041-0.174-0.084-0.26-0.129
		c-0.038-0.02-0.076-0.04-0.114-0.06c-0.007-0.004-0.014-0.008-0.021-0.011c-0.04-0.022-0.08-0.044-0.12-0.067
		c-0.029-0.016-0.058-0.032-0.087-0.05c-0.055-0.032-0.109-0.064-0.162-0.097c-0.034-0.021-0.069-0.042-0.103-0.064
		c-0.047-0.03-0.094-0.06-0.14-0.091c-0.04-0.026-0.08-0.053-0.119-0.081c-0.04-0.027-0.079-0.054-0.118-0.083
		c-0.039-0.028-0.078-0.056-0.117-0.085c-0.038-0.028-0.077-0.058-0.115-0.087c-0.038-0.029-0.076-0.059-0.113-0.089
		c-0.037-0.03-0.074-0.06-0.111-0.091c-0.111-0.092-0.219-0.187-0.325-0.285c-0.07-0.065-0.139-0.131-0.207-0.198
		c-0.102-0.101-0.201-0.205-0.297-0.312c-0.031-0.034-0.062-0.068-0.092-0.103c-0.015-0.017-0.031-0.035-0.046-0.053
		c-0.025-0.028-0.05-0.058-0.074-0.087c-0.032-0.038-0.063-0.076-0.093-0.114c-0.07-0.086-0.137-0.174-0.203-0.264
		c-0.023-0.03-0.045-0.062-0.068-0.093c-0.005-0.006-0.009-0.012-0.013-0.018c-0.024-0.034-0.048-0.068-0.072-0.103
		c-0.005-0.007-0.009-0.013-0.014-0.02c-0.025-0.038-0.051-0.076-0.076-0.114c-0.001-0.001-0.002-0.002-0.003-0.004
		c-0.023-0.034-0.044-0.068-0.066-0.102c-0.034-0.053-0.068-0.107-0.101-0.162c-0.023-0.038-0.045-0.075-0.067-0.113
		c-0.002-0.004-0.005-0.008-0.007-0.012c-0.023-0.039-0.044-0.078-0.066-0.117c-0.003-0.005-0.006-0.01-0.009-0.015
		c-0.024-0.043-0.047-0.086-0.07-0.13c-0.024-0.044-0.047-0.089-0.07-0.135c-0.048-0.093-0.093-0.188-0.137-0.284
		c-0.06-0.132-0.117-0.266-0.171-0.402c-0.005-0.013-0.01-0.026-0.015-0.039c-0.015-0.038-0.029-0.076-0.043-0.115
		c-0.018-0.048-0.035-0.096-0.052-0.144c-0.02-0.056-0.038-0.113-0.056-0.17c-0.014-0.041-0.027-0.082-0.039-0.124
		c-0.015-0.049-0.03-0.098-0.044-0.148c-0.001-0.001-0.001-0.003-0.001-0.004c-0.012-0.041-0.023-0.082-0.034-0.124
		c-0.016-0.06-0.031-0.119-0.045-0.18c-0.012-0.048-0.023-0.097-0.034-0.145c-0.009-0.04-0.017-0.08-0.025-0.12
		c-0.005-0.023-0.01-0.046-0.014-0.069c-0.005-0.026-0.011-0.052-0.015-0.078c-0.014-0.072-0.027-0.144-0.038-0.217
		c-0.007-0.045-0.014-0.089-0.02-0.135c-0.007-0.046-0.013-0.093-0.019-0.14c-0.001-0.008-0.002-0.017-0.003-0.025
		c-0.004-0.032-0.008-0.065-0.011-0.098c-0.003-0.028-0.006-0.056-0.008-0.084c-0.005-0.042-0.008-0.084-0.011-0.127
		c-0.004-0.044-0.007-0.088-0.009-0.132c-0.011-0.169-0.017-0.34-0.017-0.511c0-2.647,1.284-4.994,3.262-6.452
		c0.569-0.421,1.196-0.766,1.866-1.025c0.894-0.346,1.867-0.535,2.884-0.535c1.18,0,2.3,0.255,3.308,0.713
		c2.437,1.106,4.221,3.397,4.619,6.136c-0.121,0.089-0.245,0.176-0.371,0.258c-0.162,0.105-0.327,0.205-0.497,0.299
		c-0.072,0.04-0.145,0.079-0.219,0.117c-1.098,0.565-2.343,0.884-3.663,0.884c-0.364,0-0.721-0.024-1.072-0.072
		c-0.319-0.042-0.632-0.104-0.938-0.183c0.083-0.295,0.121-0.609,0.106-0.933c-0.072-1.582-1.419-2.831-3.002-2.792
		c-0.181,0.005-0.357,0.026-0.528,0.062c-0.415,0.087-0.798,0.261-1.128,0.503c-0.175,0.129-0.336,0.276-0.478,0.44
		c-0.44,0.504-0.71,1.161-0.721,1.88c-0.001,0.015-0.001,0.03-0.001,0.045v0.038c0.001,0.054-0.017,0.291-0.013,0.344
		c0,0.001,0,0.001,0,0.001c0.034,0.685-0.026,0.975,0.305,1.838c0.1,0.26,0.191,0.525,0.343,0.759
		c0.484,0.752,1.013,1.394,1.695,1.934c1.278,0.967,2.587,1.775,4.229,1.775c0.78,0,1.524-0.09,2.201-0.374
		c0.134-0.033,0.287-0.144,0.439-0.204c2.455-1.554,4.322-3.952,5.194-6.786c0.021-0.068,0.041-0.136,0.061-0.205
		c0.018-0.062,0.035-0.125,0.052-0.187c0.013-0.047,0.025-0.095,0.037-0.142c0.016-0.06,0.03-0.12,0.045-0.18
		c0.015-0.06,0.029-0.119,0.042-0.179c0.001-0.001,0.001-0.002,0.001-0.003c0.015-0.06,0.028-0.121,0.04-0.181
		c0.024-0.113,0.046-0.226,0.066-0.34c0.101-0.55,0.163-1.114,0.186-1.687c0.001-0.002,0.001-0.004,0.001-0.007v-0.007
		c0.001-0.018,0.002-0.036,0.002-0.054c0.002-0.034,0.003-0.068,0.004-0.101c0-0.007,0.001-0.013,0.001-0.019
		c0.001-0.044,0.002-0.086,0.003-0.126c0.001-0.076,0.002-0.144,0.002-0.205c0-2.908-1.008-5.581-2.695-7.687
		c8.453,3.799,14.339,12.292,14.339,22.161C48.923,27.214,48.472,29.838,47.642,32.286z"/>
	<path fill="#743A8A" d="M37,10.51c-0.847-0.437-1.722-0.825-2.621-1.16c-0.452-0.169-0.911-0.325-1.374-0.467
		c-2.403-0.737-4.955-1.108-7.584-1.052c-0.507,0.01-1.017,0.037-1.528,0.079c-1.896,0.158-3.722,0.53-5.458,1.09
		c-0.48,0.155-0.954,0.325-1.419,0.508c-0.393,0.154-0.781,0.319-1.163,0.493c0.312-0.296,0.636-0.578,0.973-0.847
		c0.481-0.383,0.986-0.738,1.513-1.061c1.118-0.685,2.335-1.229,3.63-1.605c0.662-0.193,1.344-0.341,2.045-0.442
		c0.277-0.331,0.429-0.768,0.391-1.233c-0.034-0.405-0.207-0.765-0.467-1.036C23.833,3.67,23.717,3.577,23.59,3.5
		c-0.85-0.618-1.917-0.945-3.047-0.851c-1.101,0.092-2.077,0.568-2.807,1.285c1.537-2.005,3.881-3.38,6.597-3.606
		c0.93-0.077,1.839-0.015,2.707,0.17c0.688,0.146,1.349,0.37,1.974,0.661c2.223,1.115,3.829,3.327,4.051,5.987
		c0.012,0.145,0.02,0.289,0.023,0.432c0.412,0.214,0.814,0.447,1.204,0.699C35.278,8.914,36.188,9.663,37,10.51z"/>
</g>
<text transform="matrix(1 0 0 1 53.5801 31.9991)" fill="#FFFFFF" font-family="'TypoGraphica'" font-size="25.5484px">WIZLIZ</text>
</svg>
