<?xml version="1.0" encoding="utf-8"?>
<!-- Generator: Adobe Illustrator 23.0.1, SVG Export Plug-In . SVG Version: 6.00 Build 0)  -->
<svg version="1.1" id="Layer_1" xmlns="http://www.w3.org/2000/svg" xmlns:xlink="http://www.w3.org/1999/xlink" x="0px" y="0px"
	 viewBox="0 0 133 45" enable-background="new 0 0 133 45" xml:space="preserve">
<g>
	<path fill="#FFFFFF" d="M47.36,31.433v-0.014c0-2.684-2.176-4.86-4.86-4.86c-1.099,0-2.113,0.365-2.927,0.98
		c-0.055,0.041-0.108,0.084-0.161,0.127c-0.027,0.022-0.054,0.045-0.081,0.068c-0.024,0.02-0.048,0.041-0.072,0.063
		c-0.005,0.003-0.008,0.007-0.012,0.011c-0.025,0.021-0.049,0.044-0.073,0.067c-0.025,0.024-0.051,0.047-0.076,0.073
		c-0.025,0.024-0.05,0.049-0.074,0.074c-0.025,0.025-0.05,0.05-0.073,0.076c-0.144,0.153-0.278,0.316-0.401,0.487
		c-0.021,0.028-0.041,0.057-0.06,0.086c-0.014,0.019-0.026,0.038-0.039,0.057c-0.015,0.023-0.03,0.046-0.045,0.069
		c-0.017,0.026-0.034,0.053-0.05,0.079c-0.026,0.042-0.051,0.084-0.076,0.127c-0.014,0.024-0.027,0.047-0.04,0.071
		c-0.101,0.182-0.19,0.371-0.267,0.567c-0.012,0.029-0.023,0.059-0.034,0.089c-0.012,0.033-0.025,0.067-0.036,0.101
		c-0.003,0.008-0.006,0.017-0.009,0.026c-0.011,0.032-0.021,0.063-0.031,0.095c0,0.001,0,0.001,0,0.001
		c-0.011,0.032-0.02,0.064-0.029,0.096c-0.009,0.029-0.017,0.059-0.025,0.089c-0.007,0.026-0.014,0.053-0.021,0.08
		c-0.008,0.03-0.015,0.06-0.022,0.09c-0.006,0.023-0.011,0.046-0.016,0.069c-0.02,0.088-0.036,0.178-0.051,0.268
		c-0.281-1.388-1.507-2.433-2.977-2.433c-0.976,0-1.845,0.461-2.401,1.177c0.113,0.177,0.219,0.36,0.317,0.547
		c0.851,1.26,1.347,2.778,1.347,4.413c0,3.279-1.999,6.092-4.844,7.285c-0.939,0.394-1.971,0.612-3.053,0.612
		c-0.765,0-1.504-0.109-2.204-0.312c-0.45-0.17-0.876-0.389-1.272-0.65c-0.531-0.35-1.007-0.776-1.414-1.262
		c-0.583-0.697-1.021-1.519-1.27-2.418c-0.153-0.552-0.234-1.133-0.234-1.733c0-0.447,0.045-0.884,0.132-1.306
		c0.116,0.719,0.389,1.385,0.784,1.962c0.789,1.154,2.063,1.95,3.529,2.094c-0.412,0.145-0.856,0.224-1.319,0.224
		c-0.385,0-0.758-0.055-1.111-0.157c0.89,1.01,2.194,1.648,3.647,1.648c0.286,0,0.566-0.025,0.839-0.072
		c0.846-0.147,1.618-0.513,2.253-1.038c0.487-0.402,0.895-0.898,1.195-1.459c0.214-0.399,0.373-0.831,0.469-1.287
		c0.124-0.5,0.19-1.024,0.19-1.563c0-0.603-0.082-1.188-0.237-1.742c-0.163-0.585-0.406-1.138-0.718-1.644
		c-0.29-0.596-0.726-1.108-1.259-1.492c-0.026-0.019-0.054-0.038-0.081-0.056c-0.592-0.403-1.297-0.652-2.059-0.687
		c0.019,0.003,0.038,0.007,0.057,0.011c-0.056-0.005-0.113-0.008-0.17-0.011c-0.061-0.003-0.123-0.005-0.186-0.005
		c-0.854,0-1.645,0.269-2.294,0.726c-0.01,0.006-0.02,0.014-0.029,0.02c-0.774,0.555-1.34,1.379-1.562,2.337
		c0.02-0.203,0.029-0.409,0.029-0.616c0-0.414-0.039-0.819-0.114-1.211c-0.034-0.182-0.076-0.361-0.125-0.538
		c-0.077-0.276-0.172-0.544-0.283-0.803c-0.228-0.534-0.526-1.03-0.883-1.478c-1.169-1.472-2.966-2.424-4.986-2.451
		c-3.509-0.048-6.447,2.745-6.568,6.252c-0.024,0.71,0.065,1.397,0.253,2.041c-1.251-2.662-1.95-5.636-1.95-8.772
		c0-0.285,0.006-0.568,0.017-0.85c0.006-0.158,0.014-0.316,0.024-0.473c0.002-0.031,0.004-0.062,0.006-0.093
		c0.003-0.042,0.006-0.085,0.009-0.126c0.003-0.041,0.006-0.082,0.009-0.123c0.01-0.117,0.02-0.233,0.031-0.349
		c0.015-0.157,0.032-0.313,0.051-0.468c0.012-0.106,0.026-0.212,0.04-0.317c0.002-0.014,0.003-0.027,0.006-0.04
		c0.016-0.119,0.034-0.238,0.052-0.357c0.021-0.134,0.043-0.268,0.066-0.401c0.022-0.126,0.046-0.251,0.07-0.376
		c0.029-0.148,0.059-0.294,0.091-0.441c0.01-0.05,0.021-0.099,0.033-0.149c0.056-0.25,0.117-0.498,0.183-0.744
		c0.015-0.057,0.03-0.113,0.046-0.17c0.055-0.2,0.113-0.398,0.173-0.596c0.019-0.062,0.038-0.124,0.058-0.185
		c0.037-0.117,0.075-0.233,0.114-0.349c0.02-0.061,0.041-0.122,0.063-0.183l0.052-0.149c0.047-0.132,0.095-0.264,0.145-0.394
		c0.023-0.06,0.046-0.12,0.069-0.18c0.07-0.179,0.142-0.357,0.217-0.534c0.025-0.059,0.05-0.118,0.076-0.176
		c0.102-0.234,0.208-0.467,0.318-0.696c0.028-0.057,0.055-0.114,0.083-0.172c0.028-0.057,0.056-0.114,0.085-0.171
		c0.028-0.057,0.057-0.114,0.086-0.17c0.029-0.057,0.059-0.113,0.088-0.169c0.03-0.056,0.06-0.113,0.09-0.168
		c0.03-0.056,0.06-0.112,0.091-0.167c0.03-0.056,0.061-0.111,0.092-0.166c0.06-0.107,0.121-0.214,0.183-0.319
		c0.226-0.387,0.464-0.765,0.715-1.135c0.035-0.052,0.071-0.105,0.107-0.157c0.036-0.052,0.072-0.104,0.108-0.156
		c0.036-0.051,0.073-0.103,0.11-0.154c0.147-0.205,0.298-0.408,0.452-0.607c0.039-0.05,0.077-0.1,0.117-0.149
		c0.077-0.098,0.156-0.195,0.234-0.292c0.081-0.098,0.162-0.196,0.245-0.293c0.041-0.048,0.082-0.096,0.123-0.144
		c0.041-0.048,0.082-0.095,0.124-0.143c0.035-0.039,0.07-0.079,0.105-0.119c0.017-0.019,0.034-0.038,0.051-0.057
		c0.071-0.078,0.143-0.157,0.215-0.234c0.046-0.05,0.092-0.099,0.139-0.148c0.043-0.046,0.087-0.091,0.131-0.136
		c0.043-0.046,0.087-0.091,0.132-0.136c0.044-0.045,0.088-0.09,0.133-0.134c0.089-0.089,0.179-0.177,0.27-0.264
		c0.045-0.044,0.091-0.087,0.136-0.131C13.654,9.743,13.7,9.7,13.746,9.657c0.046-0.043,0.092-0.086,0.139-0.128
		c0.047-0.043,0.094-0.085,0.14-0.127c0.094-0.084,0.189-0.167,0.284-0.25c0.191-0.165,0.385-0.326,0.581-0.483
		c0.046-0.037,0.092-0.074,0.139-0.11c0.053-0.042,0.105-0.083,0.158-0.123l0.15-0.115c0.05-0.038,0.101-0.076,0.152-0.114
		c0.051-0.037,0.101-0.075,0.152-0.112c0.045-0.032,0.088-0.064,0.133-0.096c0.161-0.116,0.324-0.229,0.488-0.339
		c0.052-0.035,0.105-0.07,0.158-0.105c0.105-0.07,0.212-0.139,0.318-0.206c0.107-0.068,0.215-0.135,0.323-0.201
		c0.054-0.033,0.108-0.066,0.162-0.098c0.055-0.033,0.109-0.065,0.164-0.097c0.044-0.025,0.088-0.051,0.132-0.076
		c0.068-0.039,0.136-0.078,0.204-0.116c0.054-0.03,0.107-0.06,0.161-0.09c0.056-0.03,0.112-0.061,0.167-0.091
		c0.056-0.03,0.112-0.06,0.168-0.089c0.043-0.023,0.086-0.045,0.128-0.067c0.07-0.037,0.141-0.072,0.211-0.107
		c0.057-0.029,0.114-0.057,0.171-0.085c0.057-0.028,0.115-0.056,0.172-0.083c0.057-0.028,0.115-0.055,0.173-0.082
		c0.054-0.025,0.108-0.05,0.162-0.075c0.062-0.028,0.124-0.056,0.186-0.083c0.058-0.026,0.116-0.051,0.175-0.077
		c0.001-0.001,0.001-0.001,0.002-0.001c0.081-0.035,0.162-0.07,0.245-0.105c0.001,0.001,0.001,0.001,0.001,0.001
		c-1.519,1.826-2.431,4.174-2.431,6.734c0,0.011,0,0.022,0.001,0.033v0.007c-0.001,0.048-0.001,0.097-0.001,0.145
		c0,3.971,2.211,7.425,5.468,9.2h0.001c1.359,0.741,2.901,1.189,4.54,1.26c-0.122-0.044-0.242-0.091-0.361-0.143
		c-0.001-0.001-0.002-0.001-0.003-0.001c-0.075-0.032-0.149-0.065-0.223-0.1c-0.074-0.035-0.148-0.072-0.221-0.109
		c-0.033-0.017-0.065-0.034-0.097-0.051c-0.006-0.003-0.012-0.007-0.018-0.01c-0.034-0.019-0.068-0.038-0.102-0.057
		c-0.025-0.014-0.05-0.028-0.074-0.042c-0.047-0.027-0.092-0.054-0.138-0.082c-0.029-0.018-0.059-0.036-0.088-0.055
		c-0.04-0.025-0.08-0.051-0.119-0.077c-0.034-0.023-0.068-0.045-0.101-0.069c-0.034-0.023-0.067-0.046-0.1-0.07
		c-0.033-0.024-0.066-0.047-0.099-0.072c-0.033-0.024-0.065-0.049-0.097-0.074c-0.032-0.025-0.064-0.05-0.096-0.076
		c-0.032-0.025-0.063-0.051-0.095-0.077c-0.094-0.078-0.187-0.159-0.276-0.242c-0.06-0.055-0.118-0.111-0.176-0.168
		c-0.087-0.086-0.171-0.175-0.253-0.265c-0.026-0.029-0.052-0.058-0.078-0.088c-0.013-0.015-0.026-0.03-0.039-0.045
		c-0.021-0.024-0.042-0.049-0.063-0.074c-0.027-0.032-0.054-0.064-0.079-0.097c-0.059-0.073-0.117-0.148-0.172-0.224
		c-0.019-0.026-0.038-0.052-0.057-0.079c-0.004-0.005-0.007-0.01-0.011-0.015c-0.02-0.029-0.041-0.058-0.061-0.087
		c-0.004-0.006-0.008-0.011-0.012-0.017c-0.021-0.032-0.043-0.064-0.065-0.097c-0.001-0.001-0.002-0.002-0.002-0.003
		c-0.019-0.029-0.038-0.057-0.056-0.087c-0.029-0.045-0.058-0.091-0.086-0.137c-0.019-0.032-0.038-0.064-0.057-0.096
		c-0.002-0.003-0.004-0.007-0.006-0.01c-0.019-0.033-0.038-0.066-0.056-0.099c-0.003-0.004-0.005-0.008-0.007-0.013
		c-0.02-0.037-0.04-0.073-0.06-0.11c-0.02-0.038-0.04-0.076-0.06-0.115c-0.041-0.079-0.079-0.16-0.117-0.242
		c-0.051-0.112-0.1-0.227-0.145-0.342c-0.005-0.011-0.008-0.022-0.013-0.033c-0.012-0.032-0.025-0.065-0.037-0.097
		c-0.015-0.041-0.03-0.082-0.044-0.123c-0.017-0.048-0.033-0.096-0.048-0.144c-0.012-0.035-0.023-0.07-0.033-0.105
		c-0.013-0.042-0.025-0.083-0.037-0.126c-0.001-0.001-0.001-0.002-0.001-0.003c-0.01-0.035-0.02-0.07-0.029-0.105
		c-0.014-0.051-0.026-0.101-0.038-0.153c-0.01-0.041-0.02-0.082-0.029-0.123c-0.008-0.034-0.015-0.068-0.021-0.102
		c-0.005-0.019-0.008-0.039-0.012-0.059c-0.005-0.022-0.009-0.045-0.012-0.066c-0.012-0.061-0.023-0.123-0.032-0.184
		c-0.006-0.038-0.012-0.076-0.017-0.115c-0.006-0.039-0.011-0.079-0.016-0.119c-0.001-0.007-0.002-0.014-0.002-0.021
		c-0.003-0.028-0.007-0.055-0.01-0.083c-0.002-0.024-0.005-0.047-0.007-0.072c-0.004-0.035-0.007-0.072-0.01-0.108
		c-0.003-0.037-0.006-0.075-0.008-0.113c-0.01-0.144-0.014-0.289-0.014-0.435c0-2.251,1.092-4.247,2.775-5.488
		c0.484-0.358,1.017-0.652,1.587-0.872c0.761-0.294,1.588-0.455,2.453-0.455c1.004,0,1.956,0.217,2.814,0.606
		c2.072,0.94,3.59,2.889,3.929,5.219c-0.103,0.076-0.208,0.149-0.316,0.219c-0.137,0.09-0.278,0.175-0.423,0.255
		c-0.061,0.034-0.123,0.068-0.187,0.1c-0.934,0.481-1.993,0.752-3.115,0.752c-0.309,0-0.614-0.02-0.912-0.061
		c-0.272-0.036-0.538-0.088-0.798-0.156c0.071-0.251,0.103-0.518,0.09-0.794c-0.061-1.346-1.207-2.408-2.554-2.375
		c-0.154,0.004-0.304,0.022-0.449,0.052c-0.353,0.074-0.679,0.222-0.96,0.428c-0.149,0.109-0.286,0.235-0.407,0.374
		c-0.374,0.429-0.604,0.987-0.613,1.599c-0.001,0.013-0.001,0.025-0.001,0.038v0.032c0.001,0.046-0.014,0.247-0.011,0.293
		c0,0.001,0,0.001,0,0.001c0.029,0.583-0.022,0.829,0.259,1.563c0.085,0.221,0.163,0.446,0.291,0.646
		c0.412,0.64,0.862,1.186,1.441,1.645c1.087,0.822,2.2,1.51,3.597,1.51c0.664,0,1.296-0.077,1.872-0.318
		c0.114-0.028,0.244-0.122,0.373-0.174c2.088-1.321,3.676-3.361,4.418-5.772c0.018-0.058,0.035-0.116,0.052-0.174
		c0.015-0.053,0.03-0.106,0.045-0.159c0.011-0.04,0.021-0.081,0.032-0.121c0.014-0.051,0.026-0.102,0.038-0.153
		c0.013-0.051,0.025-0.101,0.035-0.152c0.001-0.001,0.001-0.002,0.001-0.003c0.012-0.051,0.024-0.103,0.034-0.154
		c0.02-0.096,0.039-0.192,0.056-0.289c0.086-0.468,0.139-0.947,0.158-1.435c0.001-0.002,0.001-0.003,0.001-0.006v-0.006
		c0.001-0.015,0.002-0.03,0.002-0.046c0.002-0.029,0.003-0.058,0.003-0.086c0-0.006,0.001-0.011,0.001-0.016
		c0.001-0.038,0.002-0.073,0.002-0.107c0.001-0.065,0.002-0.123,0.002-0.174c0-2.474-0.858-4.747-2.292-6.538
		c7.19,3.231,12.196,10.455,12.196,18.849C48.45,27.119,48.066,29.351,47.36,31.433z"/>
	<path fill="#743A8A" d="M38.309,12.911c-0.721-0.371-1.465-0.701-2.229-0.986c-0.385-0.144-0.774-0.276-1.169-0.397
		c-2.044-0.626-4.215-0.942-6.451-0.895c-0.431,0.009-0.865,0.031-1.3,0.068c-1.613,0.134-3.166,0.451-4.642,0.927
		c-0.409,0.132-0.811,0.276-1.207,0.432c-0.335,0.131-0.664,0.271-0.99,0.419c0.265-0.252,0.541-0.492,0.828-0.72
		c0.409-0.326,0.838-0.628,1.287-0.903c0.951-0.582,1.986-1.045,3.087-1.365c0.563-0.164,1.143-0.29,1.739-0.376
		c0.236-0.281,0.365-0.653,0.332-1.049c-0.029-0.344-0.176-0.65-0.397-0.881c-0.087-0.091-0.186-0.171-0.293-0.236
		c-0.723-0.526-1.631-0.804-2.592-0.724c-0.936,0.078-1.766,0.483-2.388,1.093c1.307-1.706,3.301-2.875,5.611-3.067
		c0.791-0.066,1.564-0.013,2.302,0.145c0.585,0.124,1.147,0.314,1.679,0.562c1.891,0.949,3.257,2.83,3.445,5.093
		c0.01,0.123,0.017,0.246,0.02,0.368c0.35,0.182,0.692,0.381,1.024,0.594C36.844,11.554,37.618,12.191,38.309,12.911z"/>
</g>
<g>
	<path fill="#FFFFFF" d="M55.482,15.207l2.48,8.417l4.369-8.367l4.295,8.516l2.629-8.565h4.566l-6.59,17.896h-0.1l-4.75-9.257
		l-5.11,9.257h-0.073l-6.035-17.896H55.482z"/>
	<path fill="#FFFFFF" d="M74.437,15.219h4.294v13.539v3.962l-4.294-0.012V15.219z"/>
	<path fill="#FFFFFF" d="M87.718,19.193h-5.986l-1.247-3.986h14.267l-8.318,13.514h7.577l0.025,3.999H79.35L87.718,19.193z"/>
	<path fill="#FFFFFF" d="M105.44,32.72H95.369V15.219l4.294-0.012v13.514h6.924L105.44,32.72z"/>
	<path fill="#FFFFFF" d="M107.204,15.219h4.294v13.675v3.826l-4.294-0.012V15.219z"/>
	<path fill="#FFFFFF" d="M120.484,19.193h-5.986l-1.247-3.986h14.267L119.2,28.721h7.577l0.025,3.999h-14.686L120.484,19.193z"/>
</g>
</svg>
