<?xml version="1.0" encoding="utf-8"?>
<!-- Generator: Adobe Illustrator 23.0.1, SVG Export Plug-In . SVG Version: 6.00 Build 0)  -->
<svg version="1.1" id="Layer_1" xmlns="http://www.w3.org/2000/svg" xmlns:xlink="http://www.w3.org/1999/xlink" x="0px" y="0px"
	 viewBox="0 0 1920 1080" enable-background="new 0 0 1920 1080" xml:space="preserve">
<polygon fill="#474747" stroke="#474747" points="0,497 0,596 20,590 "/>
<polygon fill="#454545" stroke="#454545" points="0,99 0,0 0,0 "/>
<polygon fill="#393939" stroke="#393939" points="0,994 0,1080 0,1080 "/>
<polygon fill="#494949" stroke="#494949" points="0,198 0,298 70,245 "/>
<polygon fill="#454545" stroke="#454545" points="0,596 0,696 20,590 "/>
<polygon fill="#3A3A3A" stroke="#3A3A3A" points="0,994 0,1080 99,1080 "/>
<polygon fill="#454545" stroke="#454545" points="0,0 0,99 95,0 "/>
<polygon fill="#3A3A3A" stroke="#3A3A3A" points="0,1080 0,1080 0,795 "/>
<polygon fill="#4E4E4E" stroke="#4E4E4E" points="70,245 0,298 145,290 "/>
<polygon fill="#494949" stroke="#494949" points="0,0 0,0 70,245 "/>
<polygon fill="#4D4D4D" stroke="#4D4D4D" points="0,99 0,198 165,175 "/>
<polygon fill="#4F4F4F" stroke="#4F4F4F" points="0,198 70,245 165,175 "/>
<polygon fill="#4E4E4E" stroke="#4E4E4E" points="0,298 0,397 145,290 "/>
<polygon fill="#494949" stroke="#494949" points="70,245 0,0 95,0 "/>
<polygon fill="#494949" stroke="#494949" points="0,0 70,245 95,0 "/>
<polygon fill="#525252" stroke="#525252" points="145,290 0,397 185,345 "/>
<polygon fill="#535353" stroke="#535353" points="70,245 145,290 165,175 "/>
<polygon fill="#464646" stroke="#464646" points="95,0 0,99 99,0 "/>
<polygon fill="#4B4B4B" stroke="#4B4B4B" points="99,0 0,99 165,175 "/>
<polygon fill="#4D4D4D" stroke="#4D4D4D" points="0,497 20,590 215,530 "/>
<polygon fill="#494949" stroke="#494949" points="20,590 0,696 220,645 "/>
<polygon fill="#4E4E4E" stroke="#4E4E4E" points="215,530 20,590 220,645 "/>
<polygon fill="#4D4D4D" stroke="#4D4D4D" points="0,397 0,497 185,345 "/>
<polygon fill="#424242" stroke="#424242" points="0,795 0,895 240,840 "/>
<polygon fill="#454545" stroke="#454545" points="0,696 0,795 220,645 "/>
<polygon fill="#555555" stroke="#555555" points="185,345 0,497 215,530 "/>
<polygon fill="#4D4D4D" stroke="#4D4D4D" points="99,0 165,175 198,0 "/>
<polygon fill="#3C3C3C" stroke="#3C3C3C" points="0,895 0,994 99,1080 "/>
<polygon fill="#474747" stroke="#474747" points="220,645 0,795 240,840 "/>
<polygon fill="#414141" stroke="#414141" points="0,895 99,1080 240,840 "/>
<polygon fill="#424242" stroke="#424242" points="99,1080 198,1080 240,840 "/>
<polygon fill="#494949" stroke="#494949" points="240,840 198,1080 310,900 "/>
<polygon fill="#4C4C4C" stroke="#4C4C4C" points="270,825 240,840 310,900 "/>
<polygon fill="#4C4C4C" stroke="#4C4C4C" points="220,645 240,840 270,825 "/>
<polygon fill="#4D4D4D" stroke="#4D4D4D" points="270,825 310,900 340,855 "/>
<polygon fill="#4F4F4F" stroke="#4F4F4F" points="340,720 270,825 340,855 "/>
<polygon fill="#4D4D4D" stroke="#4D4D4D" points="220,645 270,825 340,720 "/>
<polygon fill="#494949" stroke="#494949" points="198,1080 298,1080 310,900 "/>
<polygon fill="#515151" stroke="#515151" points="198,0 165,175 298,0 "/>
<polygon fill="#555555" stroke="#555555" points="165,175 145,290 185,345 "/>
<polygon fill="#4E4E4E" stroke="#4E4E4E" points="310,900 298,1080 405,1050 "/>
<polygon fill="#4D4D4D" stroke="#4D4D4D" points="298,1080 397,1080 405,1050 "/>
<polygon fill="#4F4F4F" stroke="#4F4F4F" points="405,1050 397,1080 445,1060 "/>
<polygon fill="#5B5B5B" stroke="#5B5B5B" points="165,175 185,345 475,185 "/>
<polygon fill="#666666" stroke="#666666" points="298,0 165,175 475,185 "/>
<polygon fill="#737373" stroke="#737373" points="397,0 298,0 475,185 "/>
<polygon fill="#505050" stroke="#505050" points="215,530 220,645 340,720 "/>
<polygon fill="#737373" stroke="#737373" points="397,0 475,185 490,115 "/>
<polygon fill="#7A7A7A" stroke="#7A7A7A" points="397,0 490,115 510,45 "/>
<polygon fill="#858585" stroke="#858585" points="497,0 397,0 510,45 "/>
<polygon fill="#515151" stroke="#515151" points="445,1060 397,1080 497,1080 "/>
<polygon fill="#8D8D8D" stroke="#8D8D8D" points="497,0 510,45 525,5 "/>
<polygon fill="#4D4D4D" stroke="#4D4D4D" points="340,855 310,900 405,1050 "/>
<polygon fill="#7A7A7A" stroke="#7A7A7A" points="510,45 490,115 545,90 "/>
<polygon fill="#565656" stroke="#565656" points="340,720 340,855 525,675 "/>
<polygon fill="#575757" stroke="#575757" points="215,530 340,720 525,675 "/>
<polygon fill="#505050" stroke="#505050" points="340,855 405,1050 445,1060 "/>
<polygon fill="#878787" stroke="#878787" points="525,5 545,90 596,0 "/>
<polygon fill="#707070" stroke="#707070" points="490,115 475,185 545,90 "/>
<polygon fill="#808080" stroke="#808080" points="525,5 510,45 545,90 "/>
<polygon fill="#525252" stroke="#525252" points="340,855 445,1060 635,905 "/>
<polygon fill="#555555" stroke="#555555" points="445,1060 497,1080 635,905 "/>
<polygon fill="#525252" stroke="#525252" points="185,345 215,530 475,185 "/>
<polygon fill="#6C6C6C" stroke="#6C6C6C" points="340,855 635,905 645,835 "/>
<polygon fill="#6D6D6D" stroke="#6D6D6D" points="525,675 340,855 645,835 "/>
<polygon fill="#787878" stroke="#787878" points="620,735 525,675 645,835 "/>
<polygon fill="#6A6A6A" stroke="#6A6A6A" points="635,905 596,1080 655,935 "/>
<polygon fill="#5C5C5C" stroke="#5C5C5C" points="497,1080 596,1080 635,905 "/>
<polygon fill="#636363" stroke="#636363" points="655,935 596,1080 680,990 "/>
<polygon fill="#595959" stroke="#595959" points="475,185 215,530 525,675 "/>
<polygon fill="#7A7A7A" stroke="#7A7A7A" points="620,735 645,835 700,795 "/>
<polygon fill="#5D5D5D" stroke="#5D5D5D" points="680,990 596,1080 696,1080 "/>
<polygon fill="#7A7A7A" stroke="#7A7A7A" points="525,675 620,735 740,595 "/>
<polygon fill="#929292" stroke="#929292" points="596,0 545,90 696,0 "/>
<polygon fill="#939393" stroke="#939393" points="497,0 525,5 596,0 "/>
<polygon fill="#6D6D6D" stroke="#6D6D6D" points="545,90 475,185 750,215 "/>
<polygon fill="#5C5C5C" stroke="#5C5C5C" points="475,185 525,675 760,415 "/>
<polygon fill="#707070" stroke="#707070" points="525,675 740,595 760,415 "/>
<polygon fill="#6F6F6F" stroke="#6F6F6F" points="655,935 680,990 755,920 "/>
<polygon fill="#757575" stroke="#757575" points="645,835 635,905 755,920 "/>
<polygon fill="#727272" stroke="#727272" points="635,905 655,935 755,920 "/>
<polygon fill="#616161" stroke="#616161" points="680,990 696,1080 775,1015 "/>
<polygon fill="#6A6A6A" stroke="#6A6A6A" points="755,920 680,990 775,1015 "/>
<polygon fill="#5C5C5C" stroke="#5C5C5C" points="750,215 475,185 760,415 "/>
<polygon fill="#7B7B7B" stroke="#7B7B7B" points="700,795 645,835 755,920 "/>
<polygon fill="#797979" stroke="#797979" points="696,0 545,90 750,215 "/>
<polygon fill="#606060" stroke="#606060" points="775,1015 696,1080 795,1080 "/>
<polygon fill="#838383" stroke="#838383" points="620,735 700,795 740,595 "/>
<polygon fill="#5F5F5F" stroke="#5F5F5F" points="750,215 760,415 820,285 "/>
<polygon fill="#5D5D5D" stroke="#5D5D5D" points="820,285 760,415 825,310 "/>
<polygon fill="#6A6A6A" stroke="#6A6A6A" points="760,415 740,595 830,460 "/>
<polygon fill="#626262" stroke="#626262" points="810,405 760,415 830,460 "/>
<polygon fill="#5E5E5E" stroke="#5E5E5E" points="760,415 810,405 825,310 "/>
<polygon fill="#959595" stroke="#959595" points="696,0 750,215 795,0 "/>
<polygon fill="#6C6C6C" stroke="#6C6C6C" points="755,920 775,1015 905,985 "/>
<polygon fill="#6F6F6F" stroke="#6F6F6F" points="775,1015 895,1080 905,985 "/>
<polygon fill="#616161" stroke="#616161" points="775,1015 795,1080 895,1080 "/>
<polygon fill="#6E6E6E" stroke="#6E6E6E" points="830,460 740,595 920,530 "/>
<polygon fill="#616161" stroke="#616161" points="825,310 810,405 975,350 "/>
<polygon fill="#858585" stroke="#858585" points="795,0 750,215 895,0 "/>
<polygon fill="#7E7E7E" stroke="#7E7E7E" points="920,530 740,595 980,645 "/>
<polygon fill="#5F5F5F" stroke="#5F5F5F" points="810,405 830,460 990,400 "/>
<polygon fill="#636363" stroke="#636363" points="975,350 810,405 990,400 "/>
<polygon fill="#6B6B6B" stroke="#6B6B6B" points="905,985 895,1080 994,1080 "/>
<polygon fill="#5F5F5F" stroke="#5F5F5F" points="830,460 920,530 990,400 "/>
<polygon fill="#909090" stroke="#909090" points="740,595 700,795 980,645 "/>
<polygon fill="#5E5E5E" stroke="#5E5E5E" points="820,285 825,310 975,350 "/>
<polygon fill="#616161" stroke="#616161" points="820,285 975,350 1010,300 "/>
<polygon fill="#898989" stroke="#898989" points="700,795 755,920 1010,755 "/>
<polygon fill="#969696" stroke="#969696" points="980,645 700,795 1010,755 "/>
<polygon fill="#858585" stroke="#858585" points="755,920 905,985 1010,755 "/>
<polygon fill="#B1B1B1" stroke="#B1B1B1" points="750,215 820,285 895,0 "/>
<polygon fill="#9A9A9A" stroke="#9A9A9A" points="1010,755 905,985 1040,805 "/>
<polygon fill="#959595" stroke="#959595" points="895,0 820,285 1010,300 "/>
<polygon fill="#848484" stroke="#848484" points="975,350 990,400 1010,300 "/>
<polygon fill="#959595" stroke="#959595" points="994,0 895,0 1010,300 "/>
<polygon fill="#919191" stroke="#919191" points="1010,300 990,400 1115,330 "/>
<polygon fill="#979797" stroke="#979797" points="1115,330 990,400 1140,360 "/>
<polygon fill="#858585" stroke="#858585" points="905,985 994,1080 1040,805 "/>
<polygon fill="#9A9A9A" stroke="#9A9A9A" points="980,645 1010,755 1185,685 "/>
<polygon fill="#808080" stroke="#808080" points="1040,805 994,1080 1093,1080 "/>
<polygon fill="#A5A5A5" stroke="#A5A5A5" points="1010,755 1040,805 1185,685 "/>
<polygon fill="#999999" stroke="#999999" points="994,0 1010,300 1093,0 "/>
<polygon fill="#9A9A9A" stroke="#9A9A9A" points="1040,805 1093,1080 1215,955 "/>
<polygon fill="#868686" stroke="#868686" points="1093,1080 1193,1080 1215,955 "/>
<polygon fill="#606060" stroke="#606060" points="920,530 980,645 990,400 "/>
<polygon fill="#A4A4A4" stroke="#A4A4A4" points="1093,0 1010,300 1115,330 "/>
<polygon fill="#7F7F7F" stroke="#7F7F7F" points="1093,0 1115,330 1275,150 "/>
<polygon fill="#7B7B7B" stroke="#7B7B7B" points="1193,0 1093,0 1275,150 "/>
<polygon fill="#666666" stroke="#666666" points="1140,360 980,645 1185,685 "/>
<polygon fill="#6A6A6A" stroke="#6A6A6A" points="990,400 980,645 1140,360 "/>
<polygon fill="#A9A9A9" stroke="#A9A9A9" points="1185,685 1040,805 1285,815 "/>
<polygon fill="#B0B0B0" stroke="#B0B0B0" points="1040,805 1215,955 1285,815 "/>
<polygon fill="#848484" stroke="#848484" points="1215,955 1193,1080 1292,1080 "/>
<polygon fill="#8E8E8E" stroke="#8E8E8E" points="1140,360 1185,685 1245,405 "/>
<polygon fill="#909090" stroke="#909090" points="1292,0 1275,150 1325,100 "/>
<polygon fill="#8A8A8A" stroke="#8A8A8A" points="1185,685 1285,815 1325,765 "/>
<polygon fill="#838383" stroke="#838383" points="1193,0 1275,150 1292,0 "/>
<polygon fill="#ADADAD" stroke="#ADADAD" points="1115,330 1140,360 1275,150 "/>
<polygon fill="#B2B2B2" stroke="#B2B2B2" points="1140,360 1245,405 1275,150 "/>
<polygon fill="#898989" stroke="#898989" points="1292,0 1325,100 1375,70 "/>
<polygon fill="#808080" stroke="#808080" points="1325,765 1285,815 1375,815 "/>
<polygon fill="#646464" stroke="#646464" points="1292,0 1375,70 1392,0 "/>
<polygon fill="#AFAFAF" stroke="#AFAFAF" points="1275,150 1245,405 1320,395 "/>
<polygon fill="#838383" stroke="#838383" points="1185,685 1325,765 1405,655 "/>
<polygon fill="#B6B6B6" stroke="#B6B6B6" points="1392,0 1375,70 1400,5 "/>
<polygon fill="#868686" stroke="#868686" points="1325,765 1375,815 1425,760 "/>
<polygon fill="#828282" stroke="#828282" points="1375,815 1285,815 1415,850 "/>
<polygon fill="#8D8D8D" stroke="#8D8D8D" points="1245,405 1185,685 1405,655 "/>
<polygon fill="#848484" stroke="#848484" points="1400,5 1375,70 1400,75 "/>
<polygon fill="#929292" stroke="#929292" points="1375,70 1325,100 1400,75 "/>
<polygon fill="#9A9A9A" stroke="#9A9A9A" points="1245,405 1405,655 1440,600 "/>
<polygon fill="#8E8E8E" stroke="#8E8E8E" points="1405,655 1325,765 1425,760 "/>
<polygon fill="#BBBBBB" stroke="#BBBBBB" points="1285,815 1215,955 1415,850 "/>
<polygon fill="#A1A1A1" stroke="#A1A1A1" points="1320,395 1245,405 1440,600 "/>
<polygon fill="#888888" stroke="#888888" points="1375,815 1415,850 1425,760 "/>
<polygon fill="#C7C7C7" stroke="#C7C7C7" points="1320,395 1440,600 1450,450 "/>
<polygon fill="#A5A5A5" stroke="#A5A5A5" points="1215,955 1392,1080 1415,850 "/>
<polygon fill="#919191" stroke="#919191" points="1215,955 1292,1080 1392,1080 "/>
<polygon fill="#A0A0A0" stroke="#A0A0A0" points="1440,600 1405,655 1475,665 "/>
<polygon fill="#A8A8A8" stroke="#A8A8A8" points="1325,100 1275,150 1485,180 "/>
<polygon fill="#ABABAB" stroke="#ABABAB" points="1400,75 1325,100 1485,180 "/>
<polygon fill="#9A9A9A" stroke="#9A9A9A" points="1405,655 1425,760 1475,665 "/>
<polygon fill="#BBBBBB" stroke="#BBBBBB" points="1400,5 1400,75 1491,0 "/>
<polygon fill="#B4B4B4" stroke="#B4B4B4" points="1275,150 1320,395 1485,180 "/>
<polygon fill="#7C7C7C" stroke="#7C7C7C" points="1415,850 1392,1080 1465,885 "/>
<polygon fill="#C5C5C5" stroke="#C5C5C5" points="1400,75 1485,180 1515,140 "/>
<polygon fill="#BABABA" stroke="#BABABA" points="1392,0 1400,5 1491,0 "/>
<polygon fill="#7E7E7E" stroke="#7E7E7E" points="1465,885 1392,1080 1535,960 "/>
<polygon fill="#797979" stroke="#797979" points="1392,1080 1491,1080 1535,960 "/>
<polygon fill="#BFBFBF" stroke="#BFBFBF" points="1491,0 1400,75 1515,140 "/>
<polygon fill="#8A8A8A" stroke="#8A8A8A" points="1425,760 1415,850 1465,885 "/>
<polygon fill="#C6C6C6" stroke="#C6C6C6" points="1491,0 1515,140 1555,110 "/>
<polygon fill="#C1C1C1" stroke="#C1C1C1" points="1320,395 1450,450 1485,180 "/>
<polygon fill="#858585" stroke="#858585" points="1465,885 1535,960 1560,865 "/>
<polygon fill="#8C8C8C" stroke="#8C8C8C" points="1425,760 1465,885 1560,865 "/>
<polygon fill="#C4C4C4" stroke="#C4C4C4" points="1491,0 1555,110 1590,45 "/>
<polygon fill="#C5C5C5" stroke="#C5C5C5" points="1491,0 1590,45 1591,0 "/>
<polygon fill="#747474" stroke="#747474" points="1535,960 1491,1080 1591,1080 "/>
<polygon fill="#D0D0D0" stroke="#D0D0D0" points="1485,180 1450,450 1575,455 "/>
<polygon fill="#CBCBCB" stroke="#CBCBCB" points="1450,450 1440,600 1575,455 "/>
<polygon fill="#919191" stroke="#919191" points="1475,665 1425,760 1560,865 "/>
<polygon fill="#CDCDCD" stroke="#CDCDCD" points="1440,600 1475,665 1575,455 "/>
<polygon fill="#CFCFCF" stroke="#CFCFCF" points="1590,45 1555,110 1685,90 "/>
<polygon fill="#CBCBCB" stroke="#CBCBCB" points="1591,0 1590,45 1690,0 "/>
<polygon fill="#D1D1D1" stroke="#D1D1D1" points="1590,45 1685,90 1690,0 "/>
<polygon fill="#696969" stroke="#696969" points="1670,1055 1591,1080 1690,1080 "/>
<polygon fill="#808080" stroke="#808080" points="1535,960 1591,1080 1670,1055 "/>
<polygon fill="#D9D9D9" stroke="#D9D9D9" points="1485,180 1575,455 1720,345 "/>
<polygon fill="#A9A9A9" stroke="#A9A9A9" points="1560,865 1535,960 1745,940 "/>
<polygon fill="#777777" stroke="#777777" points="1535,960 1670,1055 1745,940 "/>
<polygon fill="#828282" stroke="#828282" points="1560,865 1745,940 1750,885 "/>
<polygon fill="#D3D3D3" stroke="#D3D3D3" points="1515,140 1485,180 1720,345 "/>
<polygon fill="#888888" stroke="#888888" points="1560,865 1750,885 1760,800 "/>
<polygon fill="#DDDDDD" stroke="#DDDDDD" points="1720,345 1575,455 1760,420 "/>
<polygon fill="#D5D5D5" stroke="#D5D5D5" points="1555,110 1515,140 1720,345 "/>
<polygon fill="#C3C3C3" stroke="#C3C3C3" points="1475,665 1560,865 1770,705 "/>
<polygon fill="#919191" stroke="#919191" points="1560,865 1760,800 1770,705 "/>
<polygon fill="#D8D8D8" stroke="#D8D8D8" points="1690,0 1770,45 1770,20 "/>
<polygon fill="#D6D6D6" stroke="#D6D6D6" points="1690,0 1685,90 1770,45 "/>
<polygon fill="#DADADA" stroke="#DADADA" points="1685,90 1725,105 1770,45 "/>
<polygon fill="#DADADA" stroke="#DADADA" points="1685,90 1555,110 1720,345 "/>
<polygon fill="#D7D7D7" stroke="#D7D7D7" points="1690,0 1770,20 1790,0 "/>
<polygon fill="#D9D9D9" stroke="#D9D9D9" points="1770,20 1770,45 1790,0 "/>
<polygon fill="#666666" stroke="#666666" points="1670,1055 1690,1080 1790,1080 "/>
<polygon fill="#696969" stroke="#696969" points="1745,940 1670,1055 1790,1080 "/>
<polygon fill="#BEBEBE" stroke="#BEBEBE" points="1575,455 1475,665 1770,705 "/>
<polygon fill="#CACACA" stroke="#CACACA" points="1760,420 1575,455 1770,705 "/>
<polygon fill="#DDDDDD" stroke="#DDDDDD" points="1685,90 1720,345 1725,105 "/>
<polygon fill="#DFDFDF" stroke="#DFDFDF" points="1790,0 1770,45 1895,65 "/>
<polygon fill="#D8D8D8" stroke="#D8D8D8" points="1760,420 1770,705 1900,500 "/>
<polygon fill="#E3E3E3" stroke="#E3E3E3" points="1889,0 1790,0 1895,65 "/>
<polygon fill="#DDDDDD" stroke="#DDDDDD" points="1770,45 1725,105 1895,65 "/>
<polygon fill="#E7E7E7" stroke="#E7E7E7" points="1725,105 1720,345 1920,198 "/>
<polygon fill="#626262" stroke="#626262" points="1790,1080 1889,1080 1920,994 "/>
<polygon fill="#717171" stroke="#717171" points="1745,940 1790,1080 1920,994 "/>
<polygon fill="#E8E8E8" stroke="#E8E8E8" points="1725,105 1920,198 1920,99 "/>
<polygon fill="#E3E3E3" stroke="#E3E3E3" points="1895,65 1725,105 1920,99 "/>
<polygon fill="#EFEFEF" stroke="#EFEFEF" points="1920,198 1720,345 1920,298 "/>
<polygon fill="#EDEDED" stroke="#EDEDED" points="1720,345 1760,420 1920,298 "/>
<polygon fill="#F3F3F3" stroke="#F3F3F3" points="1920,298 1760,420 1920,397 "/>
<polygon fill="#EDEDED" stroke="#EDEDED" points="1760,420 1900,500 1920,397 "/>
<polygon fill="#8F8F8F" stroke="#8F8F8F" points="1760,800 1750,885 1920,895 "/>
<polygon fill="#767676" stroke="#767676" points="1745,940 1920,994 1920,895 "/>
<polygon fill="#868686" stroke="#868686" points="1750,885 1745,940 1920,895 "/>
<polygon fill="#D3D3D3" stroke="#D3D3D3" points="1900,500 1770,705 1920,596 "/>
<polygon fill="#ECECEC" stroke="#ECECEC" points="1895,65 1920,99 1920,0 "/>
<polygon fill="#E9E9E9" stroke="#E9E9E9" points="1889,0 1895,65 1920,0 "/>
<polygon fill="#BFBFBF" stroke="#BFBFBF" points="1920,596 1770,705 1920,696 "/>
<polygon fill="#999999" stroke="#999999" points="1760,800 1920,895 1920,795 "/>
<polygon fill="#A9A9A9" stroke="#A9A9A9" points="1920,696 1770,705 1920,795 "/>
<polygon fill="#9F9F9F" stroke="#9F9F9F" points="1770,705 1760,800 1920,795 "/>
<polygon fill="#636363" stroke="#636363" points="1920,994 1889,1080 1920,1080 "/>
<polygon fill="#E2E2E2" stroke="#E2E2E2" points="1900,500 1920,596 1920,497 "/>
<polygon fill="#F0F0F0" stroke="#F0F0F0" points="1920,397 1900,500 1920,497 "/>
<rect opacity="0.65" fill="#FFFFFF" stroke="#000000" width="1920" height="1080"/>
</svg>
