<?xml version="1.0" encoding="UTF-8" standalone="no"?>
<!-- Generator: Adobe Illustrator 23.0.1, SVG Export Plug-In . SVG Version: 6.00 Build 0)  -->

<svg
   xmlns:dc="http://purl.org/dc/elements/1.1/"
   xmlns:cc="http://creativecommons.org/ns#"
   xmlns:rdf="http://www.w3.org/1999/02/22-rdf-syntax-ns#"
   xmlns:svg="http://www.w3.org/2000/svg"
   xmlns="http://www.w3.org/2000/svg"
   xmlns:sodipodi="http://sodipodi.sourceforge.net/DTD/sodipodi-0.dtd"
   xmlns:inkscape="http://www.inkscape.org/namespaces/inkscape"
   version="1.1"
   id="Layer_1"
   x="0px"
   y="0px"
   viewBox="0 0 134 45"
   xml:space="preserve"
   sodipodi:docname="wizlizmain.svg"
   width="134"
   height="45"
   inkscape:version="0.92.4 (5da689c313, 2019-01-14)"><metadata
   id="metadata38"><rdf:RDF><cc:Work
       rdf:about=""><dc:format>image/svg+xml</dc:format><dc:type
         rdf:resource="http://purl.org/dc/dcmitype/StillImage" /><dc:title></dc:title></cc:Work></rdf:RDF></metadata><defs
   id="defs36" /><sodipodi:namedview
   pagecolor="#ffffff"
   bordercolor="#666666"
   borderopacity="1"
   objecttolerance="10"
   gridtolerance="10"
   guidetolerance="10"
   inkscape:pageopacity="0"
   inkscape:pageshadow="2"
   inkscape:window-width="1920"
   inkscape:window-height="1001"
   id="namedview34"
   showgrid="false"
   inkscape:pagecheckerboard="true"
   inkscape:zoom="9.2873727"
   inkscape:cx="71.225597"
   inkscape:cy="28.987191"
   inkscape:window-x="-9"
   inkscape:window-y="-9"
   inkscape:window-maximized="1"
   inkscape:current-layer="Layer_1"
   showguides="false" />
<style
   type="text/css"
   id="style25">
	.st0{fill:#FFFFFF;}
	.st1{fill:#743A8A;}
	.st2{font-family:'TypoGraphica';}
	.st3{font-size:26.9681px;}
</style>
<path
   class="st0"
   d="m 42.304817,32.58882 v -0.0201 c 0,-3.1352 -2.268554,-5.67752 -5.06614,-5.67752 -1.147728,0 -2.205788,0.42205 -3.057619,1.14555 -0.0538,0.0502 -0.116565,0.1005 -0.170365,0.15073 -0.0269,0.0302 -0.0538,0.0503 -0.08069,0.0804 -0.0269,0.0201 -0.0538,0.0502 -0.07173,0.0703 -0.0089,0 -0.0089,0.0101 -0.0089,0.0101 -0.0269,0.0201 -0.0538,0.0502 -0.08069,0.0804 -0.02689,0.0301 -0.0538,0.0603 -0.08068,0.0804 -0.0269,0.0302 -0.0538,0.0603 -0.08069,0.0904 -0.0269,0.0302 -0.0538,0.0603 -0.07173,0.0904 -0.152432,0.18088 -0.286929,0.3718 -0.42143,0.57278 -0.01793,0.0301 -0.04483,0.0703 -0.06276,0.1005 -0.01793,0.0201 -0.02689,0.0402 -0.04483,0.0703 -0.01793,0.0302 -0.03586,0.0502 -0.04483,0.0804 -0.01793,0.0301 -0.03587,0.0603 -0.0538,0.0904 -0.0269,0.0502 -0.0538,0.10048 -0.08069,0.15073 -0.01793,0.0302 -0.02689,0.0603 -0.04483,0.0804 -0.107599,0.21102 -0.197265,0.43209 -0.277964,0.66321 -0.0089,0.0302 -0.0269,0.0703 -0.03588,0.1005 -0.0089,0.0402 -0.02689,0.0804 -0.03587,0.12058 0,0.0101 -0.0089,0.0201 -0.0089,0.0302 -0.0089,0.0402 -0.01793,0.0703 -0.03587,0.11054 0,0 0,0 0,0 -0.0089,0.0402 -0.01793,0.0703 -0.0269,0.11053 -0.0089,0.0302 -0.01793,0.0703 -0.02689,0.10049 -0.0089,0.0302 -0.01793,0.0603 -0.01793,0.0904 -0.0089,0.0301 -0.01793,0.0703 -0.0269,0.10049 -0.0089,0.0302 -0.0089,0.0503 -0.01793,0.0804 -0.01793,0.10049 -0.03586,0.21102 -0.0538,0.31151 -0.295899,-1.62789 -1.569158,-2.84379 -3.102451,-2.84379 -1.022194,0 -1.927823,0.54263 -2.501687,1.37667 0.116567,0.21103 0.224165,0.42205 0.331765,0.64312 0.887695,1.47716 1.407759,3.24574 1.407759,5.15499 0,3.82856 -2.080256,7.12454 -5.048207,8.51126 -0.977361,0.46224 -2.053356,0.71346 -3.18315,0.71346 -0.798029,0 -1.569159,-0.13064 -2.295455,-0.36176 -0.466265,-0.20097 -0.914595,-0.45219 -1.327059,-0.7637 -0.555931,-0.412 -1.049096,-0.90438 -1.470527,-1.47716 -0.60973,-0.81395 -1.067027,-1.77862 -1.327059,-2.82369 -0.1614,-0.64312 -0.242099,-1.32643 -0.242099,-2.02984 0,-0.52253 0.04483,-1.03501 0.134499,-1.5274 0.116567,0.84409 0.403497,1.61784 0.815963,2.2911 0.824929,1.34653 2.151989,2.28106 3.685281,2.45189 -0.430399,0.17083 -0.896662,0.26127 -1.371893,0.26127 -0.403498,0 -0.789063,-0.0603 -1.156694,-0.18088 0.932529,1.18575 2.286487,1.92935 3.801847,1.92935 0.295899,0 0.591797,-0.0302 0.87873,-0.0804 0.878726,-0.17083 1.685723,-0.60292 2.349253,-1.21589 0.511097,-0.47229 0.932528,-1.04507 1.246359,-1.70828 0.224168,-0.46224 0.385566,-0.97473 0.493166,-1.50731 0.125532,-0.58282 0.197264,-1.1958 0.197264,-1.82886 0,-0.70341 -0.08967,-1.38673 -0.251065,-2.03989 -0.170365,-0.68331 -0.42143,-1.32643 -0.753196,-1.91931 -0.304865,-0.69336 -0.753196,-1.29628 -1.309126,-1.74847 -0.02689,-0.0201 -0.0538,-0.0402 -0.0807,-0.0703 -0.618697,-0.47229 -1.353959,-0.7637 -2.151989,-0.8039 0.01793,0 0.03587,0.0101 0.06276,0.0101 -0.06276,-0.0101 -0.116566,-0.0101 -0.179333,-0.0101 -0.06276,0 -0.125532,-0.0101 -0.197265,-0.0101 -0.887696,0 -1.712624,0.31151 -2.394088,0.84409 -0.0089,0.0101 -0.01793,0.0201 -0.02689,0.0201 -0.806996,0.65317 -1.398793,1.6078 -1.631925,2.73325 0.01793,-0.24116 0.02689,-0.48233 0.02689,-0.7235 0,-0.48234 -0.04483,-0.95463 -0.116566,-1.41687 -0.03587,-0.21102 -0.0807,-0.42205 -0.1345,-0.63307 -0.0807,-0.32156 -0.179331,-0.63307 -0.295898,-0.93453 -0.242061,-0.623 -0.546927,-1.20583 -0.923524,-1.72836 -1.21946,-1.71833 -3.093485,-2.83374 -5.2006404,-2.86388 -3.6583812,-0.0603 -6.7249654,3.20554 -6.8504981,7.30541 -0.0269,0.83404 0.071733,1.62789 0.260032,2.38154 C 1.0762963,31.91556 0.35,28.4387 0.35,24.78097 c 0,-0.3316 0.008967,-0.66321 0.0179333,-0.99482 0.008967,-0.18087 0.0179332,-0.3718 0.0268999,-0.55268 0,-0.0402 0,-0.0703 0.008967,-0.11053 0,-0.0502 0.008967,-0.1005 0.008967,-0.15073 0,-0.0502 0.008967,-0.10051 0.008967,-0.14069 0.008967,-0.14068 0.0179333,-0.27131 0.0358665,-0.41199 0.0179333,-0.18088 0.0358665,-0.36176 0.0537997,-0.54263 0.008967,-0.12059 0.0268999,-0.25122 0.0448331,-0.37181 0,-0.0201 0,-0.0301 0.008967,-0.0502 0.0179333,-0.14069 0.0358665,-0.28137 0.0537997,-0.42205 0.0179333,-0.16078 0.044833,-0.31151 0.0717329,-0.47229 0.0268999,-0.15073 0.044833,-0.29141 0.0717329,-0.44214 0.0268999,-0.17083 0.0627663,-0.34166 0.0986328,-0.51249 0.008967,-0.0603 0.0179333,-0.12058 0.0358665,-0.17083 0.0627683,-0.29141 0.1255345,-0.58282 0.1883008,-0.87423 0.017933,-0.0703 0.0269,-0.13064 0.044832,-0.20098 0.053799,-0.23112 0.1165659,-0.46224 0.1793323,-0.69336 0.017933,-0.0703 0.035866,-0.14068 0.062766,-0.22107 0.035867,-0.14068 0.0807,-0.27131 0.1165662,-0.412 0.017933,-0.0703 0.044832,-0.14068 0.062766,-0.21102 l 0.053799,-0.17083 c 0.053799,-0.15073 0.098634,-0.31151 0.1524325,-0.46224 0.0269,-0.0703 0.044832,-0.14068 0.071733,-0.21102 0.071732,-0.21102 0.1524326,-0.412 0.2241655,-0.62302 0.0269,-0.0703 0.053799,-0.14068 0.080699,-0.21102 0.1075994,-0.27132 0.2151989,-0.54263 0.3317649,-0.81395 0.0269,-0.0703 0.053799,-0.13063 0.089667,-0.20097 0.026901,-0.0703 0.062766,-0.13064 0.089666,-0.20098 0.026901,-0.0703 0.062766,-0.13063 0.089667,-0.20097 0.026899,-0.0703 0.062766,-0.13063 0.089667,-0.20098 0.0269,-0.0703 0.062766,-0.13063 0.089666,-0.20097 0.0269,-0.0603 0.062766,-0.13063 0.098633,-0.19093 0.035866,-0.0603 0.062766,-0.13063 0.098633,-0.19092 0.062766,-0.12059 0.1255328,-0.25122 0.1882991,-0.3718 0.233132,-0.45219 0.4841974,-0.89434 0.7442295,-1.32643 0.035866,-0.0603 0.071732,-0.12059 0.1075993,-0.18088 0.035866,-0.0603 0.071734,-0.120583 0.1165662,-0.180876 0.035866,0.01007 0.071733,-0.05024 0.1075993,-0.110535 0.1524326,-0.24117 0.3138317,-0.47229 0.4752309,-0.713458 0.044832,-0.06029 0.0807,-0.120585 0.1255327,-0.170829 C 5.0574785,9.778286 5.1381776,9.667751 5.2188772,9.547166 5.2995772,9.436631 5.3892431,9.326094 5.4699426,9.205509 5.5147746,9.145219 5.5596096,9.094974 5.5954754,9.034682 5.6403074,8.974392 5.6851414,8.924146 5.721008,8.863854 5.76584,8.823654 5.801708,8.783464 5.837574,8.733221 5.855507,8.713121 5.87344,8.693031 5.891373,8.662881 5.972068,8.572441 6.0438013,8.482006 6.1155343,8.391568 6.1693343,8.341328 6.2141663,8.281032 6.2679668,8.22074 6.3127998,8.1705 6.3576328,8.120253 6.4024661,8.059961 6.4472991,8.009721 6.4921321,7.949425 6.5369654,7.899181 6.5817984,7.848941 6.6266314,7.798694 6.6714647,7.738402 6.7611307,7.637915 6.8597639,7.527379 6.94943,7.426892 6.994265,7.376652 7.048064,7.32641 7.092898,7.276167 7.137731,7.225927 7.19153,7.17568 7.2363639,7.125436 7.2811969,7.075196 7.3349959,7.024949 7.3798299,6.974705 7.4246629,6.924455 7.4784609,6.874215 7.5232944,6.823971 7.6219284,6.723484 7.7205621,6.633045 7.8191947,6.532558 8.0164605,6.341633 8.2226927,6.150707 8.428925,5.969831 8.473758,5.929631 8.527558,5.879391 8.5723909,5.839197 8.6261909,5.788957 8.6799904,5.73871 8.7337901,5.698515 L 8.8951894,5.567882 c 0.0538,-0.04019 0.1075993,-0.09044 0.1613991,-0.130633 0.0538,-0.04019 0.1075993,-0.09044 0.1613991,-0.130633 0.044833,-0.04019 0.089666,-0.07034 0.1344992,-0.110536 0.1703659,-0.130633 0.3407317,-0.271315 0.5110975,-0.3919 0.0538,-0.0402 0.1075994,-0.08039 0.1613997,-0.120584 0.107599,-0.08039 0.224165,-0.16078 0.331765,-0.241169 0.107599,-0.08039 0.224164,-0.16078 0.34073,-0.231121 0.0538,-0.04019 0.116568,-0.08039 0.170367,-0.110536 0.0538,-0.04019 0.116566,-0.08039 0.170365,-0.110535 0.04483,-0.03015 0.08968,-0.06029 0.134499,-0.09044 0.07173,-0.05024 0.143466,-0.09044 0.215199,-0.130634 0.0538,-0.04019 0.1076,-0.07034 0.170367,-0.100486 0.0538,-0.0402 0.116566,-0.07034 0.170366,-0.110536 0.0538,-0.03015 0.116566,-0.07034 0.179332,-0.100488 0.04483,-0.03015 0.08967,-0.05024 0.1345,-0.08039 0.07173,-0.04019 0.143466,-0.08039 0.224165,-0.120584 0.06276,-0.03015 0.116566,-0.07034 0.179332,-0.100487 0.06276,-0.03015 0.116566,-0.06029 0.179332,-0.100488 0.06276,-0.03015 0.116567,-0.06029 0.179332,-0.100486 0.0538,-0.03015 0.116567,-0.06029 0.170366,-0.09044 0.06276,-0.03015 0.125533,-0.07034 0.197266,-0.100488 0.06276,-0.03015 0.125532,-0.06029 0.179332,-0.09044 0,0 0,0 0,0 0.08068,-0.04019 0.170367,-0.08039 0.260033,-0.120584 0,0 0,0 0,0 -1.587093,2.130326 -2.537555,4.883673 -2.537555,7.868139 0,0.01007 0,0.03015 0,0.04019 v 0.01007 c 0,0.06029 0,0.110537 0,0.170829 0,4.642508 2.304422,8.682088 5.702771,10.752128 v 0 c 1.416727,0.86418 3.021751,1.38672 4.734376,1.47716 -0.125532,-0.0503 -0.251064,-0.11054 -0.376597,-0.17083 0,0 0,0 0,0 -0.08068,-0.0402 -0.152433,-0.0804 -0.233133,-0.12058 -0.08068,-0.0402 -0.152433,-0.0804 -0.233132,-0.13064 -0.03587,-0.0201 -0.07173,-0.0402 -0.09863,-0.0603 -0.0089,0 -0.0089,-0.0101 -0.01793,-0.0101 -0.03587,-0.0201 -0.07173,-0.0402 -0.107599,-0.0703 -0.02689,-0.0201 -0.0538,-0.0301 -0.08068,-0.0502 -0.04483,-0.0301 -0.09863,-0.0603 -0.143466,-0.10049 -0.02689,-0.0201 -0.06276,-0.0402 -0.08967,-0.0603 -0.04483,-0.0301 -0.08069,-0.0603 -0.125533,-0.0904 -0.03587,-0.0301 -0.07173,-0.0502 -0.107598,-0.0804 -0.03587,-0.0302 -0.07173,-0.0502 -0.1076,-0.0804 -0.03586,-0.0301 -0.07173,-0.0603 -0.107599,-0.0804 -0.03587,-0.0301 -0.07173,-0.0603 -0.09864,-0.0904 -0.03587,-0.0302 -0.06276,-0.0603 -0.09864,-0.0904 -0.03587,-0.0301 -0.06276,-0.0603 -0.09863,-0.0904 -0.09864,-0.0904 -0.197266,-0.18088 -0.286931,-0.28136 -0.06276,-0.0603 -0.125534,-0.13064 -0.179333,-0.20098 -0.08967,-0.10049 -0.179334,-0.20097 -0.260032,-0.31151 -0.02689,-0.0302 -0.0538,-0.0703 -0.08068,-0.1005 -0.01793,-0.0201 -0.0269,-0.0301 -0.04483,-0.0502 -0.01793,-0.0301 -0.04483,-0.0603 -0.06276,-0.0904 -0.02689,-0.0402 -0.0538,-0.0703 -0.08068,-0.11053 -0.06276,-0.0904 -0.125532,-0.17083 -0.179331,-0.26127 -0.01793,-0.0302 -0.03587,-0.0603 -0.06276,-0.0904 0,-0.0101 -0.0089,-0.0101 -0.0089,-0.0201 -0.01793,-0.0302 -0.04483,-0.0703 -0.06276,-0.10049 0,-0.0101 -0.0089,-0.0101 -0.0089,-0.0201 -0.01793,-0.0402 -0.04483,-0.0703 -0.07173,-0.11054 0,0 0,0 0,0 -0.01793,-0.0302 -0.03588,-0.0703 -0.0538,-0.1005 -0.02689,-0.0503 -0.06276,-0.11053 -0.08968,-0.16077 -0.01793,-0.0402 -0.03588,-0.0703 -0.06276,-0.11054 0,0 0,-0.0101 -0.0089,-0.0101 -0.01793,-0.0402 -0.03587,-0.0804 -0.06276,-0.12059 0,0 -0.0089,-0.0101 -0.0089,-0.0201 -0.01793,-0.0402 -0.04483,-0.0904 -0.06276,-0.13063 -0.01793,-0.0402 -0.04483,-0.0904 -0.06276,-0.13063 -0.04483,-0.0904 -0.08069,-0.19093 -0.125532,-0.28136 -0.0538,-0.13064 -0.107599,-0.26127 -0.152434,-0.40195 -0.0089,-0.0101 -0.0089,-0.0302 -0.01793,-0.0402 -0.0089,-0.0402 -0.0269,-0.0804 -0.03587,-0.11054 -0.01793,-0.0502 -0.02689,-0.10049 -0.04483,-0.14068 -0.01793,-0.0603 -0.03587,-0.11054 -0.0538,-0.17083 -0.0089,-0.0402 -0.02689,-0.0804 -0.03587,-0.12058 -0.01793,-0.0503 -0.02689,-0.10049 -0.03586,-0.15073 0,0 0,0 0,0 -0.0089,-0.0402 -0.01793,-0.0804 -0.02689,-0.12059 -0.01793,-0.0603 -0.02689,-0.12058 -0.03588,-0.18087 -0.0089,-0.0503 -0.01793,-0.10051 -0.02689,-0.14069 -0.0089,-0.0402 -0.01793,-0.0804 -0.01793,-0.12058 -0.0089,-0.0201 -0.0089,-0.0503 -0.0089,-0.0703 -0.0089,-0.0302 -0.0089,-0.0503 -0.0089,-0.0804 -0.0089,-0.0703 -0.02689,-0.1407 -0.03587,-0.21103 -0.0089,-0.0402 -0.0089,-0.0904 -0.01793,-0.13063 -0.0089,-0.0503 -0.0089,-0.0904 -0.01793,-0.14068 0,-0.0101 0,-0.0201 0,-0.0201 0,-0.0302 -0.0089,-0.0603 -0.0089,-0.1005 0,-0.0301 -0.0089,-0.0603 -0.0089,-0.0804 0,-0.0402 -0.0089,-0.0804 -0.0089,-0.13063 0,-0.0402 -0.0089,-0.0904 -0.0089,-0.13064 -0.0089,-0.17083 -0.01793,-0.34165 -0.01793,-0.51248 0,-2.63276 1.13876,-4.96407 2.896218,-6.411083 0.50213,-0.422046 1.058061,-0.763702 1.658825,-1.01492 0.789063,-0.341656 1.658825,-0.532581 2.555487,-0.532581 1.049094,0 2.044389,0.251217 2.932085,0.713458 2.160955,1.095309 3.748046,3.376376 4.097746,6.099566 -0.1076,0.0904 -0.2152,0.17083 -0.331766,0.25122 -0.143465,0.10049 -0.286932,0.20098 -0.439363,0.30146 -0.06276,0.0402 -0.125534,0.0804 -0.197266,0.12059 -0.977362,0.56273 -2.080257,0.88428 -3.245918,0.88428 -0.322799,0 -0.636629,-0.0201 -0.950462,-0.0703 -0.286931,-0.0402 -0.564895,-0.10049 -0.833894,-0.18087 0.07173,-0.29141 0.107599,-0.60292 0.08966,-0.92448 -0.06276,-1.57765 -1.255326,-2.81364 -2.663084,-2.77345 -0.1614,0 -0.313832,0.0302 -0.466266,0.0603 -0.367632,0.0904 -0.708362,0.26127 -1.004261,0.50244 -0.152432,0.13063 -0.295897,0.27131 -0.421431,0.44214 -0.394533,0.50244 -0.627662,1.1556 -0.63663,1.86906 0,0.0201 0,0.0302 0,0.0402 v 0.0402 c 0,0.0502 -0.01793,0.29141 -0.0089,0.34166 0,0 0,0 0,0 0.02689,0.68331 -0.0269,0.96467 0.268998,1.82886 0.08966,0.26127 0.170365,0.52254 0.304864,0.75366 0.430398,0.7436 0.896662,1.38672 1.506392,1.9193 1.129795,0.96468 2.295455,1.76857 3.748047,1.76857 0.690431,0 1.353961,-0.0904 1.954724,-0.3718 0.116566,-0.0301 0.251064,-0.14068 0.385563,-0.20098 2.17889,-1.5475 3.837714,-3.92904 4.608843,-6.74268 0.01793,-0.0703 0.03587,-0.13063 0.0538,-0.20097 0.01793,-0.0603 0.02689,-0.12059 0.04483,-0.18088 0.0089,-0.0502 0.01793,-0.0904 0.03587,-0.14068 0.01793,-0.0603 0.02689,-0.12059 0.03587,-0.18088 0.01793,-0.0603 0.0269,-0.12058 0.03587,-0.18088 0,0 0,0 0,0 0.0089,-0.0603 0.02689,-0.12058 0.03587,-0.18087 0.01793,-0.11054 0.04483,-0.22107 0.06276,-0.34166 0.08966,-0.54263 0.143465,-1.10536 0.161399,-1.67813 0,0 0,0 0,-0.01008 v -0.01007 c 0,-0.02009 0,-0.04019 0,-0.05024 0,-0.03015 0,-0.07034 0,-0.100491 0,-0.01007 0,-0.01007 0,-0.02009 0,-0.04019 0,-0.09043 0,-0.120584 0,-0.08038 0,-0.140682 0,-0.200974 0,-2.894028 -0.896663,-5.546887 -2.394089,-7.647068 7.496095,3.778315 12.723634,12.219232 12.723634,22.036822 0.0089,2.66291 -0.39453,5.27557 -1.129792,7.70736 z"
   id="path27"
   inkscape:connector-curvature="0"
   style="fill:#ffffff;stroke-width:0.94922584" />
<path
   class="st1"
   d="M 32.979532,12.43111 C 32.226336,11.92867 31.44624,11.48653 30.639245,11.09463 30.235746,10.903705 29.823282,10.72283 29.410818,10.552 27.267794,9.69786 24.999239,9.245669 22.667918,9.285864 c -0.44833,0.01004 -0.905629,0.03015 -1.353959,0.07034 -1.685725,0.16078 -3.299717,0.552681 -4.83301,1.165652 -0.421431,0.170828 -0.842861,0.351706 -1.255325,0.552684 -0.3497,0.17083 -0.690431,0.3517 -1.031162,0.54263 0.277966,-0.33161 0.555931,-0.643121 0.851827,-0.944584 0.421432,-0.422044 0.869765,-0.823994 1.336029,-1.1757 0.986327,-0.763701 2.062322,-1.356575 3.210049,-1.768572 0.582832,-0.211024 1.192562,-0.371803 1.811258,-0.47229 0.242098,-0.371802 0.376598,-0.864189 0.331766,-1.386722 -0.03587,-0.452192 -0.1883,-0.864189 -0.421432,-1.175699 -0.08966,-0.120584 -0.197266,-0.23112 -0.304865,-0.31151 -0.762163,-0.703409 -1.712625,-1.08526 -2.716886,-0.994822 -0.986328,0.09044 -1.847125,0.62302 -2.483755,1.416868 1.344994,-2.240862 3.416284,-3.768266 5.819337,-3.989337 0.824929,-0.08039 1.631926,0 2.403055,0.221071 0.60973,0.170828 1.201527,0.432095 1.757457,0.763702 1.981622,1.276186 3.434215,3.788364 3.658381,6.792928 0.0089,0.160779 0.01793,0.321558 0.02689,0.482338 0.367632,0.241169 0.726297,0.512484 1.075995,0.803896 0.878728,0.733556 1.694691,1.587703 2.429954,2.552383 z"
   id="path29"
   inkscape:connector-curvature="0"
   style="fill:#743a8a;stroke-width:0.94922584" />
<text
   transform="scale(0.93939584,1.064514)"
   class="st0 st2 st3"
   id="text31"
   x="48.20797"
   y="30.76218"
   style="font-size:25.45711899px;font-family:TypoGraphica;fill:#ffffff;stroke-width:0.94397157">WIZLIZ</text>

<flowRoot
   xml:space="preserve"
   id="flowRoot48"
   style="font-style:normal;font-weight:normal;font-size:40px;line-height:1.25;font-family:sans-serif;letter-spacing:0px;word-spacing:0px;fill:#000000;fill-opacity:1;stroke:none"><flowRegion
     id="flowRegion50"><rect
       id="rect52"
       width="106.91936"
       height="47.160809"
       x="28.425694"
       y="-4.7449622" /></flowRegion><flowPara
     id="flowPara54"></flowPara></flowRoot><flowRoot
   xml:space="preserve"
   id="flowRoot56"
   style="font-style:normal;font-weight:normal;font-size:40px;line-height:1.25;font-family:sans-serif;letter-spacing:0px;word-spacing:0px;fill:#000000;fill-opacity:1;stroke:none"><flowRegion
     id="flowRegion58"><rect
       id="rect60"
       width="151.6037"
       height="59.543213"
       x="-5.0606346"
       y="-23.480078" /></flowRegion><flowPara
     id="flowPara62"></flowPara></flowRoot><flowRoot
   xml:space="preserve"
   id="flowRoot64"
   style="font-style:normal;font-weight:normal;font-size:40px;line-height:1.25;font-family:sans-serif;letter-spacing:0px;word-spacing:0px;fill:#000000;fill-opacity:1;stroke:none"><flowRegion
     id="flowRegion66"><rect
       id="rect68"
       width="134.69902"
       height="44.792"
       x="-0.32301924"
       y="0.31567264" /></flowRegion><flowPara
     id="flowPara70"></flowPara></flowRoot></svg>